<?xml version="1.0" encoding="UTF-8"?><svg id="b" xmlns="http://www.w3.org/2000/svg" viewBox="0 0 560.47 560.47"><defs><style>.d{fill:#f7b23b;}.e{fill:#1a1a1a;}</style></defs><g id="c"><rect class="d" y="0" width="560.47" height="560.47" rx="84.55" ry="84.55"/><path class="e" d="M350.1,173.81l-59.09,38.77c-6.55,4.29-15.01,4.29-21.56,0l-59.09-38.77,53.62-78.85c7.8-11.47,24.69-11.47,32.49,0l53.62,78.85Z"/><path class="e" d="M452.78,365.79l-158.84,104.22c-8.33,5.46-19.09,5.46-27.42,0l-158.84-104.22c-11.67-7.66-14.8-23.4-6.95-34.94l61.99-91.15,103.8,68.1c8.33,5.46,19.09,5.46,27.42,0l103.8-68.1,61.99,91.15c7.85,11.54,4.72,27.28-6.95,34.94Z"/></g></svg>